<svg width="148" height="44" viewBox="0 0 148 44" fill="none" xmlns="http://www.w3.org/2000/svg">
<g clip-path="url(#clip0_109_3513)">
<path d="M34.8289 11.1211H28.8931V32.846H34.8289V11.1211Z" fill="#404040"/>
<path d="M59.6114 28.816C57.0708 31.8844 53.768 33.4074 49.6338 33.4074C47.9015 33.4074 46.331 33.1162 44.899 32.5563C43.467 31.9964 42.2429 31.2125 41.2267 30.2047C40.2104 29.1968 39.402 28.0098 38.8477 26.6212C38.2703 25.2326 37.9932 23.7096 37.9932 22.0298C37.9932 20.3724 38.2703 18.8494 38.8246 17.4608C39.3789 16.0498 40.1873 14.8404 41.2036 13.8102C42.2429 12.7799 43.467 11.9736 44.899 11.3913C46.331 10.809 47.9015 10.5178 49.6338 10.5178C51.5738 10.5178 53.3754 10.8314 55.0383 11.4585C56.7013 12.0856 58.087 13.183 59.2419 14.7508L55.3155 18.6031C54.6919 17.7744 53.9297 17.1249 53.0751 16.6098C52.1975 16.117 51.2043 15.8707 50.0957 15.8707C49.1487 15.8707 48.3173 16.0274 47.5782 16.3186C46.8391 16.6322 46.2155 17.0353 45.7074 17.5952C45.1992 18.1327 44.8066 18.7823 44.5525 19.499C44.2754 20.2157 44.1599 21.0219 44.1599 21.8506C44.1599 22.7241 44.2985 23.5304 44.5756 24.2695C44.8528 25.0086 45.2454 25.6581 45.7767 26.1956C46.2848 26.7331 46.9084 27.1587 47.6475 27.4722C48.3635 27.7858 49.1949 27.9202 50.0726 27.9202C51.366 27.9202 52.4284 27.6962 53.2368 27.2483C54.0452 26.8003 54.8535 26.106 55.6388 25.143L59.6114 28.816Z" fill="#404040"/>
<path d="M71.9677 33.3613C70.2817 33.3613 68.7342 33.0701 67.3254 32.4878C65.8934 31.9055 64.6693 31.1216 63.6299 30.1137C62.5906 29.1059 61.7822 27.8964 61.2048 26.5078C60.6274 25.0968 60.3271 23.5739 60.3271 21.9389C60.3271 20.2815 60.6274 18.7585 61.2048 17.3699C61.7822 15.9589 62.5906 14.7719 63.6299 13.764C64.6693 12.7562 65.8934 11.9723 67.3254 11.4124C68.7573 10.8524 70.3048 10.5613 71.9677 10.5613C73.6538 10.5613 75.2012 10.8524 76.6332 11.4124C78.0652 11.9723 79.2893 12.7562 80.3286 13.764C81.368 14.7719 82.1533 15.9813 82.7538 17.3699C83.3312 18.7809 83.6314 20.3039 83.6314 21.9389C83.6314 23.5962 83.3312 25.1192 82.7538 26.5078C82.1764 27.9188 81.368 29.1059 80.3286 30.1137C79.2893 31.1216 78.0652 31.9055 76.6332 32.4878C75.2012 33.0925 73.6307 33.3613 71.9677 33.3613ZM71.9677 27.9636C72.8454 27.9636 73.6076 27.8069 74.3005 27.4933C74.9934 27.1797 75.5708 26.7542 76.0327 26.2167C76.4946 25.6792 76.8642 25.0296 77.1182 24.2906C77.3723 23.5515 77.4878 22.7676 77.4878 21.9389C77.4878 21.1102 77.3723 20.3263 77.1182 19.5872C76.8642 18.8481 76.5177 18.1986 76.0327 17.6611C75.5708 17.1236 74.9934 16.698 74.3005 16.3845C73.6076 16.0709 72.8454 15.9141 71.9677 15.9141C71.0901 15.9141 70.3279 16.0709 69.635 16.3845C68.9421 16.698 68.3647 17.1236 67.9028 17.6611C67.4408 18.1986 67.0713 18.8481 66.8172 19.5872C66.5632 20.3263 66.4477 21.1102 66.4477 21.9389C66.4477 22.7676 66.5632 23.5515 66.8172 24.2906C67.0713 25.0296 67.4177 25.6792 67.9028 26.2167C68.3647 26.7542 68.9421 27.1797 69.635 27.4933C70.3048 27.8069 71.0901 27.9636 71.9677 27.9636Z" fill="#404040"/>
<path d="M83.7471 11.1211H90.2372L95.2722 26.239L99.9607 11.1211H106.312L98.1592 32.846H91.877L83.7471 11.1211Z" fill="#404040"/>
<path d="M108.668 11.1211H124.789V16.1156H114.604V19.4751H122.965V24.1561H114.604V27.8739H125.482V32.846H108.668V11.1211Z" fill="#404040"/>
<path d="M128.577 11.1211H137.839C139.04 11.1211 140.148 11.2779 141.118 11.569C142.089 11.8826 142.92 12.3305 143.613 12.9128C144.306 13.5176 144.837 14.2567 145.23 15.1525C145.599 16.0484 145.807 17.0787 145.807 18.2433C145.807 19.6767 145.484 20.9085 144.837 21.9612C144.19 23.0138 143.336 23.8649 142.25 24.492L147.054 32.8236H140.68L136.892 25.4327H134.397V32.8236H128.6V11.1211H128.577ZM137.261 20.9309C138.047 20.9309 138.693 20.7069 139.178 20.2366C139.663 19.7663 139.917 19.1392 139.917 18.3553C139.917 17.5266 139.687 16.8771 139.201 16.4068C138.74 15.9364 138.07 15.6901 137.215 15.6901H134.351V20.9309H137.261Z" fill="#404040"/>
<path d="M34.8289 0.0803223H28.8931V5.83631H34.8289V0.0803223Z" fill="#00B3E0"/>
<path d="M17.4832 11.1211H0.969238V16.8995H13.2796L3.34817 26.5301L7.55172 30.6064L17.4832 20.9533V32.9132H23.419V16.8995V11.1211H17.4832Z" fill="#00B3E0"/>
</g>
<defs>
<clipPath id="clip0_109_3513">
<rect width="146.062" height="43.4947" fill="white" transform="translate(0.969238 0.0803223)"/>
</clipPath>
</defs>
</svg>
